<?xml version="1.0" encoding="utf-8"?>

<!DOCTYPE svg PUBLIC "-//W3C//DTD SVG 1.1//EN" "http://www.w3.org/Graphics/SVG/1.1/DTD/svg11.dtd">
<!-- Uploaded to: SVG Repo, www.svgrepo.com, Generator: SVG Repo Mixer Tools -->
<svg height="800px" width="800px" version="1.1" id="_x32_" xmlns="http://www.w3.org/2000/svg" xmlns:xlink="http://www.w3.org/1999/xlink" 
	 viewBox="0 0 512 512"  xml:space="preserve">
<style type="text/css">
	.st0{fill:#000000;}
</style>
<g>
	<path class="st0" d="M458.266,136.914l-65.048-36.854V59.676c0-5.784-4.051-10.765-9.713-11.934L154.816,0.254
		c-3.581-0.742-7.334,0.164-10.173,2.478c-2.833,2.307-4.492,5.796-4.492,9.457v42.697l-89.337,96.211
		c-2.09,2.247-3.256,5.231-3.256,8.294v272.033c0,5.448,3.614,10.232,8.855,11.731l240.554,68.38c3.22,0.92,6.677,0.466,9.559-1.242
		l146.899-87.273c2.79-0.276,5.458-1.466,7.446-3.457c2.267-2.267,3.571-5.408,3.571-8.616V147.521
		C464.443,143.132,462.087,139.083,458.266,136.914z M379.065,120.064l52.883,29.968l-112.818,51.116L379.065,120.064z
		 M368.84,69.592v28.811L164.529,55.976V27.172L368.84,69.592z M161.273,67.963c0.052-0.053,0.088-0.125,0.138-0.177l208.122,43.216
		c0.108,0.322,0.256,0.625,0.391,0.934l-72.138,97.578l-219.64-52.028L161.273,67.963z M71.938,168.538l222.266,52.653v264.213
		L71.938,422.216V168.538z M306.395,482.013V220.298l133.667-60.56v242.861L306.395,482.013z"/>
</g>
</svg>