<?xml version="1.0" encoding="iso-8859-1"?>
<!-- Uploaded to: SVG Repo, www.svgrepo.com, Generator: SVG Repo Mixer Tools -->
<svg fill="#000000" version="1.1" id="Layer_1" xmlns="http://www.w3.org/2000/svg" xmlns:xlink="http://www.w3.org/1999/xlink" 
	 viewBox="0 0 511.999 511.999" xml:space="preserve">
<g>
	<g>
		<path d="M359.767,130.401c-6.57-6.259-14.749-14.047-30.463-14.047c-15.694,0-23.876,7.773-30.449,14.02
			c-5.653,5.371-9.738,9.252-18.537,9.252c-8.721,0-12.784-3.87-18.407-9.224c-6.57-6.259-14.749-14.047-30.463-14.047
			c-15.735,0-23.909,7.805-30.479,14.075c-5.592,5.338-9.632,9.196-18.275,9.196c-8.721,0-12.784-3.87-18.407-9.224
			c-6.57-6.259-14.749-14.047-30.463-14.047v17.484c8.721,0,12.784,3.87,18.407,9.224c6.57,6.259,14.749,14.047,30.463,14.047
			c15.648,0,23.799-7.781,30.348-14.034c5.617-5.363,9.677-9.237,18.406-9.237c8.721,0,12.784,3.87,18.407,9.224
			c6.57,6.259,14.749,14.047,30.463,14.047c15.781,0,23.986-7.797,30.58-14.06c5.629-5.348,9.694-9.21,18.407-9.21
			c8.721,0,12.784,3.87,18.407,9.224c6.57,6.259,14.749,14.047,30.463,14.047v-17.486
			C369.453,139.625,365.39,135.755,359.767,130.401z"/>
	</g>
</g>
<g>
	<g>
		<path d="M433.443,191.988h-0.67c0.463-5.108,0.685-9.86,0.685-14.53C433.459,79.607,353.85,0,255.999,0
			S78.541,79.607,78.541,177.458c0,4.668,0.221,9.421,0.685,14.53h-0.67c-28.879,0-52.376,23.496-52.376,52.375v46.558h35.57
			l17.453,221.078h353.592l17.453-221.078h35.571v-46.558C485.819,215.484,462.323,191.988,433.443,191.988z M416.638,494.516
			H95.361L79.288,290.922h353.424L416.638,494.516z M468.336,273.439h-0.001H43.664v-29.074c0-19.239,15.652-34.891,34.893-34.891
			h270.529V191.99H96.795c-0.518-5.189-0.77-9.931-0.77-14.53c0-88.211,71.764-159.975,159.975-159.975
			S415.974,89.249,415.974,177.46c0,6.742-0.529,13.761-1.664,22.091l-1.353,9.922h20.487c19.239,0,34.893,15.653,34.893,34.891
			V273.439z"/>
	</g>
</g>
<g>
	<g>
		<rect x="247.253" y="317.082" width="17.484" height="151.268"/>
	</g>
</g>
<g>
	<g>
		<rect x="340.347" y="317.082" width="17.484" height="151.268"/>
	</g>
</g>
<g>
	<g>
		<rect x="154.17" y="317.082" width="17.484" height="151.268"/>
	</g>
</g>
<g>
	<g>
		<rect x="81.464" y="238.534" width="23.271" height="17.484"/>
	</g>
</g>
<g>
	<g>
		<rect x="407.263" y="238.534" width="23.272" height="17.484"/>
	</g>
</g>
<g>
	<g>
		<rect x="128.003" y="226.89" width="23.272" height="17.484"/>
	</g>
</g>
<g>
	<g>
		<rect x="244.362" y="40.725" width="23.271" height="17.484"/>
	</g>
</g>
<g>
	<g>
		<rect x="279.271" y="75.632" width="23.271" height="17.484"/>
	</g>
</g>
</svg>